<svg width="201" height="165" viewBox="0 0 201 165" fill="none" xmlns="http://www.w3.org/2000/svg">
<path fill-rule="evenodd" clip-rule="evenodd" d="M136.628 159.887V161.657C136.628 164.414 133.51 165.989 131.339 164.308C93.9599 135.367 31.6996 84.7437 3.84743 62.013C-3.45104 56.0566 0.591036 49.4558 8.00396 50.2363L105.049 49.4558L63.3616 10.0875C62.0275 8.82761 61.2706 7.06796 61.2706 5.22619V3.33861C61.2706 0.554365 64.4605 -1.00217 66.6308 0.723072L195.834 103.431C200.762 107.349 203.503 115.594 191.733 115.327H93.1815L134.577 155.063C135.886 156.322 136.628 158.065 136.628 159.887ZM62.266 87.0857L49.1066 73.8347H126.923C130.857 73.8347 134.631 75.409 137.413 78.2102L150.572 91.4605H72.7553C68.821 91.4605 65.048 89.8869 62.266 87.0857Z" fill="#FF263E"/>
</svg>
