<svg width="412" height="413" viewBox="0 0 412 413" fill="none" xmlns="http://www.w3.org/2000/svg">
<path d="M277 341C329.049 341 340.668 299.175 339.971 278.262V278.001C289.594 277.792 277 319.913 277 341Z" stroke="#282828" stroke-width="8"/>
<path d="M408 341C356.777 341 345.343 299.175 346.028 278.262V278.001C395.606 277.792 408 319.913 408 341Z" stroke="#282828" stroke-width="8"/>
<path d="M277 347C329.049 347 340.668 388.161 339.971 408.742V408.999C289.594 409.205 277 367.752 277 347Z" stroke="#282828" stroke-width="8"/>
<path d="M408 347C356.777 347 345.343 388.161 346.028 408.742V408.999C395.606 409.205 408 367.752 408 347Z" stroke="#282828" stroke-width="8"/>
<path d="M277 66C329.049 66 340.668 24.8387 339.971 4.25802V4.00076C289.594 3.79496 277 45.2478 277 66Z" stroke="#282828" stroke-width="8"/>
<path d="M408 66C356.777 66 345.343 24.8387 346.028 4.25802V4.00076C395.606 3.79496 408 45.2478 408 66Z" stroke="#282828" stroke-width="8"/>
<path d="M277 72C329.049 72 340.668 113.825 339.971 134.738V134.999C289.594 135.208 277 93.0869 277 72Z" stroke="#282828" stroke-width="8"/>
<path d="M408 72C356.777 72 345.343 113.825 346.028 134.738V134.999C395.606 135.208 408 93.0869 408 72Z" stroke="#282828" stroke-width="8"/>
<path d="M141 67C192.223 67 203.657 25.8387 202.972 5.25802V5.00076C153.394 4.79496 141 46.2478 141 67Z" stroke="#282828" stroke-width="8"/>
<path d="M271 67C219.777 67 208.343 25.8387 209.028 5.25802V5.00076C258.606 4.79496 271 46.2478 271 67Z" stroke="#282828" stroke-width="8"/>
<path d="M141 73C192.223 73 203.657 114.825 202.972 135.738V135.999C153.394 136.208 141 94.0869 141 73Z" stroke="#282828" stroke-width="8"/>
<path d="M271 73C219.777 73 208.343 114.825 209.028 135.738V135.999C258.606 136.208 271 94.0869 271 73Z" stroke="#282828" stroke-width="8"/>
<path d="M135 204C82.9509 204 71.3322 162.839 72.029 142.258V142.001C122.406 141.795 135 183.248 135 204Z" stroke="#282828" stroke-width="8"/>
<path d="M4 67C55.2229 67 66.6572 25.8387 65.9715 5.25802V5.00076C16.3943 4.79496 4 46.2478 4 67Z" stroke="#282828" stroke-width="8"/>
<path d="M135 67C82.9509 67 71.3322 25.8387 72.029 5.25802V5.00076C122.406 4.79496 135 46.2478 135 67Z" stroke="#282828" stroke-width="8"/>
<path d="M4 73C55.2229 73 66.6572 114.825 65.9715 135.738V135.999C16.3943 136.208 4 94.0869 4 73Z" stroke="#282828" stroke-width="8"/>
<path d="M135 73C82.9509 73 71.3322 114.825 72.029 135.738V135.999C122.406 136.208 135 94.0869 135 73Z" stroke="#282828" stroke-width="8"/>
<path d="M141 204C192.223 204 203.657 162.839 202.972 142.258V142.001C153.394 141.795 141 183.248 141 204Z" stroke="#282828" stroke-width="8"/>
<path d="M271 204C219.777 204 208.343 162.839 209.028 142.258V142.001C258.606 141.795 271 183.248 271 204Z" stroke="#282828" stroke-width="8"/>
<path d="M141 210C192.223 210 203.657 251.161 202.972 271.742V271.999C153.394 272.205 141 230.752 141 210Z" stroke="#282828" stroke-width="8"/>
<path d="M271 210C219.777 210 208.343 251.161 209.028 271.742V271.999C258.606 272.205 271 230.752 271 210Z" stroke="#282828" stroke-width="8"/>
<path d="M271 341C219.777 341 208.343 299.175 209.028 278.262V278.001C258.606 277.792 271 319.913 271 341Z" stroke="#282828" stroke-width="8"/>
<path d="M277 204C329.049 204 340.668 162.839 339.971 142.258V142.001C289.594 141.795 277 183.248 277 204Z" stroke="#282828" stroke-width="8"/>
<path d="M408 204C356.777 204 345.343 162.839 346.028 142.258V142.001C395.606 141.795 408 183.248 408 204Z" stroke="#282828" stroke-width="8"/>
<path d="M277 210C329.049 210 340.668 251.161 339.971 271.742V271.999C289.594 272.205 277 230.752 277 210Z" stroke="#282828" stroke-width="8"/>
<path d="M408 210C356.777 210 345.343 251.161 346.028 271.742V271.999C395.606 272.205 408 230.752 408 210Z" stroke="#282828" stroke-width="8"/>
</svg>
