<svg id="Layer_1" data-name="Layer 1" xmlns="http://www.w3.org/2000/svg" viewBox="0 0 379.55 290.81"><path d="M383.33,240.77,135.17,49.29c-2.25-1.74-2.84,1.94-2.92,2.53a.81.81,0,0,0,0,.15c0,.62-.06,5.23,0,10.69s4.49,10.34,4.92,10.79a.23.23,0,0,0,.07.07L195.5,127s8.9,8.51,10.83,10.44-.85,1.56-.85,1.56h-5.63s-171.63-.19-184.35,0c-12.13.19-4.33,8.2-3.58,8.95l.12.1,242.2,188.46c3,1.85,6.12,3,8.14,3.1a1.37,1.37,0,0,0,1.46-1.38c0-2.39-.06-7.45-.25-11.66-.26-5.74-9.66-14.09-9.66-14.09s-39.65-37.3-53.52-48.78-5.69-12.39-5.69-12.39,164.35-.2,183.52,0S383.33,240.77,383.33,240.77ZM278.15,209.88c-8.61,0-128.74-1-128.74-1s-10.18-1-16-7.83l-19.57-17.8s-4.31-4.16,2-4.11l127.28,1s13.89-.2,18,5.87l18.19,18.19S286.76,209.88,278.15,209.88Z" transform="translate(-8.76 -48.83)" /></svg>