<svg width="462" height="463" viewBox="0 0 462 463" fill="none" xmlns="http://www.w3.org/2000/svg">
<path d="M115.919 116.13V1.00003C30.6874 5.79755 1 74.8756 1 116.13H58.4594H115.919Z" fill="#FF263E"/>
<path d="M115.919 461.52L116.398 346.39L1 346.39L115.919 461.52Z" fill="#FF263E"/>
<path d="M460.675 116.13C460.476 80.6315 437.214 7.90747 345.761 1.00002C345.919 36.4983 369.123 109.222 460.675 116.13Z" fill="#D9D9D9"/>
<path d="M230.838 116.13C268.162 115.496 341.295 92.0598 345.761 1.00002C309.369 1.47961 235.434 25.177 230.838 116.13Z" fill="#D9D9D9"/>
<path d="M460.675 116.13C460.432 152.108 437.109 225.503 345.761 231.26C351.128 139.156 424.607 116.13 460.675 116.13Z" fill="#D9D9D9"/>
<path d="M115.919 1.00003V116.13M115.919 1.00003L230.838 1M115.919 1.00003C30.6874 5.79755 1 74.8756 1 116.13M115.919 116.13H230.838M115.919 116.13H58.4594M115.919 116.13L115.679 173.695M230.838 116.13V1M230.838 116.13C133.631 124.479 115.57 200.08 115.44 231.26M230.838 116.13C249.507 116.208 341.447 131.961 345.761 231.26M230.838 116.13L231.445 175.134M230.838 116.13C235.434 25.177 309.369 1.47961 345.761 1.00002M230.838 116.13C268.162 115.496 341.295 92.0598 345.761 1.00002M230.838 116.13C231.84 116.148 229.781 116.148 230.838 116.13ZM230.838 116.13H345.761M230.838 1L345.761 1.00002M345.761 116.13V1.00002M345.761 116.13H460.675M345.761 116.13V231.26M345.761 1.00002L460.675 1V116.13M345.761 1.00002C437.214 7.90747 460.476 80.6315 460.675 116.13M345.761 1.00002C345.919 36.4983 369.123 109.222 460.675 116.13M460.675 116.13L461 231.26M460.675 116.13C460.432 152.108 437.109 225.503 345.761 231.26M460.675 116.13C424.607 116.13 351.128 139.156 345.761 231.26M115.919 461.52L230.838 462M115.919 461.52L116.398 346.39M115.919 461.52L1 346.39M345.761 461.516H460.675V346.39M345.761 461.516L230.838 462M345.761 461.516C346.722 423.379 324.31 346.39 230.838 346.39M345.761 461.516C345.497 421.7 367.851 342.361 460.675 346.39M230.838 462V346.39M115.44 231.26L116.398 346.39M115.44 231.26C115.731 266.279 136.508 337.756 230.838 346.39M115.44 231.26H173.378M115.44 231.26H1M115.44 231.26C24.6541 224.352 1.31922 151.628 1 116.13M115.44 231.26L115.679 173.695M461 231.26L460.675 346.39M461 231.26H345.761M116.398 346.39H230.838M116.398 346.39L1 346.39M116.398 346.39L1 231.26M460.675 346.39C364.431 340.154 344.168 258.604 345.761 231.26M345.761 231.26H288.297M345.761 231.26C345.761 262.921 322.773 343.033 230.838 346.39M230.838 346.39L231.683 290.264M231.445 175.134C213.206 174.814 176.06 184.057 173.378 231.26M231.445 175.134L231.683 290.264M231.445 175.134C249.597 175.454 285.616 185.592 288.297 231.26M173.378 231.26C174.74 250.129 188.308 289.881 231.683 290.264M173.378 231.26H288.297M231.683 290.264C250.874 291.064 288.297 278.847 288.297 231.26M1 346.39L1 231.26M1 116.13V231.26M1 116.13H58.4594M58.4594 116.13C59.8959 134.839 73.351 172.544 115.679 173.695" stroke="#282828"/>
</svg>
